<?xml version="1.0" encoding="UTF-8"?>
<svg width="413pt" height="424pt" version="1.0" viewBox="0 0 413 424" xmlns="http://www.w3.org/2000/svg">
 <defs>
  <clipPath id="clipPath2451">
   <rect y="7.8442" width="413.27" height="416.57" fill="none" stroke-width=".75"/>
  </clipPath>
  <clipPath id="clipPath2455">
   <rect y="7.8442" width="413.27" height="416.57" fill="none" stroke-width=".75"/>
  </clipPath>
  <clipPath id="clipPath2459">
   <rect y="7.8442" width="413.27" height="416.57" fill="none" stroke-width=".75"/>
  </clipPath>
  <clipPath id="clipPath2463">
   <rect y="7.8442" width="413.27" height="416.57" fill="none" stroke-width=".75"/>
  </clipPath>
  <clipPath id="clipPath2467">
   <rect y="7.8442" width="413.27" height="416.57" fill="none" stroke-width=".75"/>
  </clipPath>
 </defs>
 <g transform="matrix(1 0 0 1.0169 0 -7.1558)" clip-path="url(#clipPath2467)">
  <g transform="matrix(.1 0 0 -.1 0 424)">
   <path d="m2805 4146c-41-18-83-72-208-262-15-22-27-45-27-52s-4-12-10-12c-5 0-10-4-10-10 0-5-20-41-44-79-56-87-88-148-95-184l-6-28-31 29c-106 96-288 199-392 221-83 17-276 15-357-5-38-9-85-18-104-21-19-2-70-19-113-38-44-19-86-35-93-35-8 0-15-4-15-9s-8-11-17-15c-49-16-165-90-226-143-20-18-41-33-46-33s-33 44-61 98c-29 53-68 122-87 152-111 176-150 243-179 308-38 86-39 88-58 73-26-22-39-135-32-270 11-196 35-458 51-546 31-178 31-168 19-735-7-315-6-344 15-480 12-80 35-199 50-265 18-74 25-124 19-131-14-19-20-104-11-169 6-44 5-67-5-88-8-16-12-49-10-80 3-46 0-55-29-87l-33-35-108 38c-310 110-437 136-515 104l-37-16v-670l58 29c32 16 114 43 183 61 115 30 139 33 322 37 174 4 207 2 280-16 45-11 116-28 158-37 232-49 494-264 583-476l15-37-64 6c-67 5-99-7-89-32 4-9 38-16 107-21 136-9 349-49 433-81 38-14 103-43 145-65l75-39 402 2c235.57 0.54655 478.74-6.7443 515.16-2.6986-11.397 43.585-23.462 118.49-42.158 171.7-22.735 46.172-25.202 84.035-74 195-55 155-219 294-345 294-31 0-89 12-132 28-8 3-21 4-27 3-16-2-16-7 3 81 26 122 72 393 98 578 24 166 31 246 56 675 12 199 20 272 46 420 12 73 18 162 19 330 1 190 4 238 18 274 9 24 17 67 17 96s9 95 19 146c18 92 26 149 56 429 33 314 38 396 24 421-11 22-14 23-54 5zm-1260-1880c11-8 33-39 50-70 25-49 28-58 15-67-8-5-28-7-45-5-16 3-95 8-175 12-161 8-190 14-190 43 0 25 62 76 115 96 49 18 198 12 230-9zm860-10c38-20 104-100 93-111-3-4-87-7-186-8-167-2-181-1-202 18l-22 20 29 23c111 92 193 109 288 58zm145-405c5-11 10-30 10-43 0-31-51-181-78-232-28-52-16-68 20-27 15 17 28 26 28 19-2-135-92-614-140-741-25-68-61-93-236-168-100-43-129-52-184-53-36 0-68-5-71-9-4-5-17-7-30-5l-24 4 26 13c30 15 74 69 65 79-4 3-19-4-34-16-41-33-82-48-158-61-62-10-81-9-184 13-63 13-127 29-141 34-46 18-101 75-128 132-15 31-36 69-47 85-35 50-54 92-78 178-36 124-37 132-47 272-5 71-15 182-23 245-9 63-15 120-16 125 0 6 14-10 30-35s30-48 30-51c0-4 7-24 16-45 15-36 17-37 30-20 15 21 4 45-96 214-23 40-40 75-37 78 5 5 132-7 324-32 62-8 134-12 161-8 40 5 57 2 98-19 57-28 211-77 245-77 13 0 61 16 106 36 49 21 91 33 102 29 30-9 217 32 316 69 105 40 130 43 145 17z"/>
   <path d="m1452 1636c-47-51-73-99-96-175-20-68-20-91-1-91 14 0 45 48 45 70 0 10 55 132 97 213 20 40 1 33-45-17z"/>
   <path d="m2170 1594c0-3 11-27 25-53 14-25 32-63 40-84 17-45 41-45 38-1-4 50-62 144-89 144-7 0-14-3-14-6z"/>
   <path d="m1581 1401c-86-31-115-47-145-77-28-27-3-40 31-16 16 12 34 22 40 24 5 2 33-25 61-58 28-34 66-68 84-75 22-10 75-14 163-14 129 0 130 0 171 30 75 56 104 84 104 100 0 11 7 15 23 13 41-6 24 26-33 60-51 31-60 33-140 32-47-1-128 1-180 5-89 5-101 4-179-24zm354-13c86 2 99-2 109-35 9-28 3-29-225-23-139 4-190 9-203 19-38 32 44 54 164 43 41-3 111-5 155-4zm18-123c25-10 21-20-17-40-28-15-49-17-144-13-80 4-119 10-137 22-29 19-32 32-7 40 24 7 283 0 305-9z"/>
   <path d="m1605 1130c-10-16 32-57 69-69 53-17 167-26 243-20 75 7 158 44 170 75 9 25-1 24-62-7-72-37-141-45-246-30-80 11-110 21-146 46-15 12-23 13-28 5z"/>
   <path d="m4015 3458c-5-18-16-83-21-132-2-23-8-50-13-61s-18-76-31-145c-12-69-25-142-30-164-12-55 3-85 27-53 13 17 91 405 99 495 6 63 5 72-10 72-9 0-18-6-21-12z"/>
   <path d="m3766 3163c-8-16-17-77-21-143-4-63-11-133-15-155-10-43-25-196-35-340-6-90-53-521-79-730-23-180-30-331-16-340 19-12 26 8 39 123 7 59 18 134 26 167 7 33 18 112 25 175 6 63 15 142 20 175s12 83 14 110c7 68 35 313 41 350 4 31 7 74 26 405 6 107 11 197 11 200 3 38-17 39-36 3z"/>
   <path d="m3486 3091c-10-16-15-103-17-349-1-136-6-283-10-327s-10-185-13-313c-6-219-5-233 11-230 20 4 23 28 43 328 19 300 23 431 21 753-1 121-4 147-15 147-8 0-17-4-20-9z"/>
   <path d="m4116 2555c-5-16-17-64-28-105-33-127-63-207-123-336-34-72-45-134-25-134 12 0 129 242 164 342 23 64 26 88 24 169-2 73-5 87-12 64z"/>
   <path d="m3295 1748c-12-194-21-462-17-475 9-29 31-11 36 30 21 158 35 524 22 545-4 7-13 12-21 12-10 0-15-28-20-112z"/>
   <path d="m4122 1839c-1-3-16-46-33-94-17-49-32-107-33-130-2-22-13-65-25-95-11-30-21-68-20-85 0-29 0-29 16 10 8 22 21 54 28 70 53 119 76 204 72 266-2 35-4 61-5 58z"/>
  </g>
 </g>
 <g stroke-width=".55047">
  <g transform="matrix(1 0 0 1.0169 0 -7.1558)" clip-path="url(#clipPath2463)">
   <path transform="scale(.75)" d="m205.6 281.52c-0.45414-0.10466-7.8855-0.57826-16.514-1.0524-24.143-1.3268-28.624-2.1715-28.624-5.3954 0-4.331 11.021-12.254 18.972-13.639 4.7881-0.83382 18.618-0.36424 22.864 0.77632 2.4076 0.64675 3.4898 1.3367 5.2849 3.369 2.0937 2.3704 6.7979 10.599 7.6102 13.311 0.61972 2.0694-0.94532 2.9561-5.0902 2.8841-2.022-0.0351-4.0479-0.14949-4.5021-0.25415z" fill="#ff8080"/>
   <path transform="scale(.75)" d="m286.8 279.92c-0.30276-0.101-1.2063-0.32749-2.0078-0.50332s-2.4653-1.1619-3.6974-2.1912l-2.2401-1.8715 5.3488-4.187c6.0533-4.7385 12.478-8.1766 17.72-9.4821 4.6663-1.1622 9.2733-0.68678 15.093 1.5575 3.99 1.5387 4.9594 2.2218 9.1455 6.4447 5.1234 5.1684 7.3751 8.5847 6.1553 9.3386-0.39585 0.24465-4.6064 0.60602-9.3568 0.80304-8.7424 0.3626-35.148 0.42931-36.161 0.0914z" fill="#f4d7d7"/>
   <path transform="scale(.75)" d="m187.44 280.16c-21.933-1.4369-25.95-2.1692-26.324-4.7994-0.4358-3.0575 5.0832-8.1129 12.897-11.813l3.7946-1.7971 11.009 0.0132c12.804 0.0154 14.984 0.44903 17.957 3.571 2.2224 2.3338 7.3416 10.966 7.9476 13.402 0.27077 1.0882 0.15638 1.7217-0.37122 2.0558-1.1034 0.69879-9.6609 0.49771-26.91-0.63229z" fill="#f4d7d7"/>
  </g>
  <g transform="matrix(1 0 0 1.0169 0 -7.1558)" clip-path="url(#clipPath2459)" fill="#fff">
   <path transform="scale(.75)" d="m284.4 278.82c-1.0132-0.45505-2.5613-1.4325-3.4402-2.1721l-1.5981-1.3447 5.3669-4.0323c11.695-8.787 19.478-11.238 28.368-8.9346 5.4706 1.4176 8.6089 3.3418 13.234 8.1144 4.8341 4.9885 6.3272 7.3026 5.3454 8.2848-0.44058 0.44082-7.2231 0.66711-23.029 0.76836-18.97 0.12152-22.687 0.0167-24.247-0.68385z"/>
   <path transform="scale(.75)" d="m194.32 280.37c-11.528-0.73874-25.79-1.9985-28.074-2.4796-3.6729-0.77387-4.679-1.3635-4.679-2.7422 0-3.0426 4.4108-7.1103 11.928-11l4.2957-2.2229 11.843 0.20123c13.759 0.23378 14.735 0.50679 18.171 5.0792 2.8365 3.7748 6.5901 10.771 6.5997 12.301 8e-3 1.2365-7e-3 1.2384-8.6622 1.1393-4.7685-0.0546-9.9085-0.17859-11.422-0.2756z"/>
   <path transform="scale(.75)" d="m284.04 278.28c-0.90827-0.42317-2.251-1.2515-2.9839-1.8407l-1.3325-1.0713 4.8537-3.589c10.736-7.9386 15.975-10.051 23.86-9.6215 5.9565 0.32475 9.808 1.752 14.125 5.2343 3.6114 2.9134 9.0938 9.0999 9.0938 10.262 0 0.41299-0.7741 0.90571-1.7202 1.0949-0.94612 0.18923-11.288 0.33435-22.982 0.3225-17.018-0.0172-21.592-0.17511-22.913-0.79093z"/>
  </g>
  <g transform="matrix(1 0 0 1.0169 0 -7.1558)" clip-path="url(#clipPath2455)">
   <path transform="scale(.75)" d="m240.28 387.7c-15.326-0.38434-24.429-1.5859-25.531-3.3703-1.2169-1.969 2.9188-3.952 9.0174-4.3236 7.8579-0.47886 44.19 0.66969 45.798 1.4478 1.4904 0.72113 3.2829 4.0999 2.8179 5.3116-0.13457 0.35069-1.0029 0.78927-1.9297 0.97463-1.5699 0.31398-16.862 0.29364-30.172-0.0401z" fill="#e9afaf"/>
   <path transform="scale(.75)" d="m231.05 402.9c-6.3144-0.61025-10.02-1.7893-11.948-3.8011-1.4988-1.5645-1.5464-1.7417-0.69522-2.5928 1.3049-1.3049 9.8134-1.5511 26.535-0.76779 13.319 0.6239 17.36 1.267 17.36 2.7626 0 0.75554-3.9604 3.2302-6.7378 4.2101-2.4536 0.86569-16.4 0.97317-24.514 0.18894z" fill="#fff"/>
   <path transform="scale(.75)" d="m232.3 387.16c-10.142-0.63778-17.34-2.036-17.34-3.3684 0-0.9865 1.9991-2.2645 4.4119-2.8204 3.1355-0.72245 25.08-0.74554 39.028-0.0411 11.579 0.58479 11.952 0.69538 13.296 3.9397 0.57033 1.3769 0.55533 1.7468-0.0873 2.1537-0.70135 0.44399-32.655 0.55498-39.309 0.13654z" fill="#fff"/>
   <path transform="scale(.75)" d="m229 402.39c-4.7931-0.72089-7.4218-1.6573-9.2419-3.2922-2.9758-2.6729-1.9006-3.0109 10.231-3.2164 5.8137-0.0984 14.534 0.0895 19.378 0.41757 13.418 0.90881 14.757 1.6602 8.6218 4.8364l-3.4885 1.8059-11.374-0.0687c-6.2558-0.0378-12.613-0.25495-14.127-0.48263z" fill="#e9c6af"/>
   <path transform="scale(.75)" d="m239.18 402.37c-6.8121-0.20621-13.282-0.6586-14.377-1.0053-2.2709-0.71884-5.5317-2.7951-5.8329-3.714-0.35902-1.0953 2.0679-1.2936 15.806-1.2916 15.865 2e-3 26.423 0.88026 26.423 2.1971 0 0.78759-7.0179 4.3948-8.3465 4.2901-0.7077-0.0558-6.8602-0.27012-13.672-0.47634z" fill="#e9afaf"/>
   <path transform="scale(.75)" d="m241.38 402.35c-5.9038-0.22744-12.076-0.56469-13.716-0.74945-3.1399-0.35374-8.3029-2.7724-8.3029-3.8895 0-1.3582 14.088-1.7514 29.787-0.83129 9.3971 0.55075 11.653 0.92206 11.341 1.867-0.22584 0.68435-5.5229 3.4502-7.2739 3.798-0.60552 0.12029-5.9313 0.0326-11.835-0.19482z" fill="#c8b7b7"/>
   <path transform="scale(.75)" d="m247.44 485.8c0-0.1436 0.75793-0.65304 1.6843-1.1321 3.6782-1.902 9.3251-8.1086 9.3251-10.249 0-1.6088-1.7345-1.2241-5.0022 1.1094-5.9193 4.227-11.767 6.4597-21.08 8.0479-6.1661 1.0516-9.4072 1.0494-15.544-0.0107-6.8031-1.1752-21.579-4.4955-25.78-5.7931-7.1339-2.2034-14.04-9.045-19.122-18.942-1.5594-3.0374-4.5066-8.1913-6.5493-11.453-4.7267-7.5481-6.4724-11.787-10.177-24.714-3.6908-12.878-4.3284-16.475-5.4477-30.732-1.4084-17.939-2.4001-28.091-3.9166-40.096-0.77793-6.1578-1.2842-11.326-1.125-11.485 0.63373-0.63373 6.4668 9.3162 8.0878 13.796 0.94903 2.6228 2.1814 5.3234 2.7387 6.0013l1.0132 1.2326 1.2439-1.2257c2.7109-2.6711 1.6528-5.4546-9.3459-24.587-3.9843-6.9307-7.2442-12.938-7.2442-13.349 0-0.41118-0.0619-0.91711-0.13762-1.1243-0.32245-0.88266 15.484 0.55286 38.395 3.487 7.9896 1.0232 14.105 1.4476 22.294 1.5472l11.285 0.13727 4.4038 2.0876c7.5194 3.5645 22.48 8.5269 30.657 10.168 2.9641 0.59509 3.4242 0.52801 8.5323-1.244 2.9696-1.0301 8.1241-2.9435 11.454-4.252 5.4579-2.1444 6.7067-2.421 12.661-2.8044 10.474-0.6746 28.31-4.8547 41.639-9.7586 8.4973-3.1263 12.976-4.2429 14.991-3.7373 1.6879 0.42364 2.9867 2.6904 3.4411 6.0058 0.54593 3.983-3.9359 18.619-9.3063 30.392-2.3396 5.1286-2.8223 6.651-2.6616 8.3947 0.12836 1.3934 1.7361 0.61026 5.0544-2.4619l3.4024-3.15-0.37825 4.1133c-2.6725 29.062-14.088 85.69-19.582 97.14-3.3074 6.8928-8.9767 10.797-27.072 18.643-16.352 7.0903-19.207 7.9335-29.073 8.5879-3.8658 0.25637-7.5354 0.7373-8.1547 1.0687-1.0975 0.58735-5.6021 0.86194-5.6021 0.34149zm15.138-60.26c5.5714-1.4236 12.966-5.0336 14.817-7.2333 1.7035-2.0245 1.9162-4.3574 0.39737-4.3574-0.56334 0-3.6884 1.2472-6.9445 2.7715-9.2636 4.3366-12.904 5.1909-22.032 5.1706-12.65-0.0282-23.603-2.2531-29.45-5.9829-3.2753-2.0891-5.1955-2.4581-5.7171-1.0987-0.91642 2.3881 4.7803 7.8496 9.7168 9.3156 10.408 3.0909 29.9 3.794 39.212 1.4145zm-1.3762-19.514c2.6644-1.4411 12.488-9.126 15.024-11.752 1.1482-1.1895 2.2794-2.8846 2.5137-3.7669 0.38284-1.4417 0.70117-1.6321 3.1418-1.8794 3.6778-0.37273 3.8633-1.6839 0.67213-4.7513-2.807-2.6982-9.2536-6.6364-11.978-7.3174-2.1079-0.52687-29.351-1.4248-42.677-1.4066l-8.2571 0.0113-6.8809 2.3734c-12.841 4.4293-22.059 9.6928-22.91 13.082-0.78198 3.1157 2.1024 2.9661 7.2599-0.37642 1.8377-1.191 3.5716-2.1678 3.8533-2.1707 0.28165-3e-3 4.1039 3.6762 8.4939 8.1758 8.3452 8.5534 10.141 9.8098 15.098 10.564 1.536 0.23364 9.9764 0.38704 18.756 0.34088 14.522-0.0764 16.138-0.17802 17.89-1.126zm-78.336-24.692c2.0156-2.124 3.1196-4.2032 4.0188-7.569 0.73163-2.7384 6.7575-16.29 11.024-24.792 2.5935-5.1682 3.3362-7.6858 2.2672-7.6858-1.6239 0-8.8698 7.5661-12.544 13.098-5.3465 8.0505-10.588 25.336-8.4598 27.9 1.0274 1.2379 1.8061 1.0373 3.6935-0.95153zm119.6-5.8952c1.2872-0.81411 0.94484-5.8046-0.67302-9.809-2.9807-7.3777-7.9531-13.884-10.611-13.884-2.5307 0-2.2438 1.5005 1.8309 9.5743 2.1555 4.271 4.313 8.753 4.7944 9.9599 0.81794 2.0505 2.817 4.6972 3.5335 4.6781 0.1743-4e-3 0.6807-0.23851 1.1253-0.51972z" fill="#e9c6af"/>
  </g>
 </g>
 <g transform="matrix(1 0 0 1.0169 0 -7.1558)" clip-path="url(#clipPath2451)" fill="#999">
  <path d="m40.393 425.84c-1.3578-0.0835-4.0449-0.16489-5.9713-0.1807-1.9446-0.016-3.6873-0.12933-3.9178-0.25489-0.25029-0.13632-0.41524-0.14355-0.41524-0.0181 0 0.11437 0.12076 0.25752 0.26834 0.31812 0.77171 0.31689-13.672-0.12776-20.555-0.63279-2.3614-0.17326-6.1883-0.31497-8.5041-0.31493l-4.2106 9e-5 -0.13652-1.0136c-0.075084-0.55748-0.13625-2.7448-0.13593-4.8608 3.24e-4 -2.116-0.10505-4.8795-0.23415-6.1411-0.2043-1.9964-0.16439-3.059 0.30767-8.1924 0.89437-9.7259 0.97951-13.848 0.75797-36.702-0.072668-7.4965 0.059829-10.517 0.45056-10.271 0.097708 0.0615 0.83927-0.29859 1.6479-0.80011 0.80865-0.5015 2.4768-1.3962 3.7071-1.9881 1.2303-0.59196 2.7276-1.406 3.3275-1.809 1.1267-0.75694 2.7982-1.3965 7.9642-3.0472 1.6552-0.52889 3.3706-1.1152 3.8121-1.3029 0.44148-0.18772 2.2751-0.59624 4.0748-0.90783 1.8125-0.31383 3.8417-0.80882 4.549-1.1097 1.3772-0.58581 4.7335-1.2005 9.3495-1.7123 7.5777-0.84022 9.1855-0.98385 12.988-1.1602 2.2433-0.10402 9.9596-0.14989 17.147-0.10197 9.1382 0.29913 10.349 0.27598 16.425 1.1578 2.2099 0.50721 3.1501 0.72044 4.4403 1.1046 8.6253 2.0541 10.209 2.3422 20.807 5.4354 1.0022 0.34555 2.4912 1.1629 3.4358 1.5172 2.7971 1.0491 10.057 4.7133 12.118 6.1169 1.0522 0.71624 2.765 1.7676 3.8063 2.3363 1.0413 0.56874 2.3762 1.4946 2.9666 2.0574s1.7496 1.551 2.5761 2.1959c2.6495 2.0674 6.6043 5.7921 8.3723 7.8853 0.94456 1.1183 2.3968 2.7252 3.2271 3.5708 2.739 2.7894 6.1017 7.2927 10.854 14.536 0.96529 1.4712 4.7025 9.1528 4.7025 9.6657 0 0.0656-0.36226 0.0336-0.80502-0.0711-0.44277-0.10464-3.6743-0.88593-7.0474-0.88879-6.9893-5e-3 -7.3679 0.99976-7.9484 2.1421-0.58667 1.1545 0.93901 1.9304 3.1934 2.2561 0.32418 0.0468 1.656 0.27297 4.0153 0.57984 6.3236 0.46771 6.8707 0.57752 10.183 0.92487 5.4152 0.41127 10.325 1.1545 13.483 1.7451 2.447 0.45761 4.3667 1.0732 7.4945 1.6218 4.208 0.73804 6.6345 0.68474 11.478 2.4658 2.186 0.80384 3.1909 0.95355 6.0395 2.3138 4.9559 2.0839 5.0141 1.8761 7.4931 3.2475 5.5111 2.6473 4.8776 2.247 7.4601 3.7467 5.2912 2.6543 6.7989 2.9456 7.7217 4.6731l-0.92332-0.0865-3.7681-0.18428c-2.2724-0.11113-5.2697 0.0913-7.943-0.056-6.3404-0.34941-41.535-0.29368-48.516 0.0768-3.0698 0.16291-6.451 0.25774-7.5136 0.21074-1.0626-0.0469-4.2506-0.18602-7.0843-0.30892-2.8337-0.12289-7.5673-0.38205-10.519-0.57593-7.955-0.52246-15.69-0.48886-25.868 0.11237-8.6521 0.5111-8.7329 0.51185-16.637 0.15134-13.884-0.63322-22.438-0.67272-31.879-0.14721-9.1122 0.50723-18.273 0.92138-19.106 0.86382-0.29518-0.0204-1.6476-0.10544-3.0054-0.18901z" stroke-width=".21656"/>
  <path transform="scale(.75)" d="m2.3613 495.05c-0.11488-2.2525-0.089644-8.9332 0.040156-10.631 0.060502-0.79135 0.10874 1.3949 0.12221 5.5391 0.012243 3.7656 8.536e-4 6.8465-0.025311 6.8465-0.026164 0-0.087841-0.78958-0.13706-1.7546z" stroke-width=".13762"/>
  <path transform="scale(.75)" d="m2.4052 493.6c-0.0017-0.77582-0.041251-1.9524-0.087902-2.6147-0.060471-0.85848-0.039834-1.2042 0.071891-1.2042 0.1117 0 0.15671 0.75095 0.15671 2.6147 0 1.4381-0.030964 2.6147-0.068809 2.6147s-0.070196-0.63476-0.07189-1.4106z" stroke-width=".13762"/>
 </g>
</svg>
